<svg width="1337" height="361" viewBox="0 0 1337 361" fill="none" xmlns="http://www.w3.org/2000/svg">
<path fill-rule="evenodd" clip-rule="evenodd" d="M0.5 45L181.066 315.75H0V316H1337V315.75H1156.93L1337 45.7498V45H0.5ZM0.5 45L0 45.7498V45H0.5Z" fill="#801010"/>
<path d="M522.784 208.04C524.448 208.04 525.728 207.624 526.624 206.792C528.096 205.32 528.864 203.752 528.928 202.088V177.608H497.824V201.992C497.824 203.656 498.432 205.096 499.648 206.312C500.864 207.464 502.304 208.04 503.968 208.04H505.12L505.216 209H476.032V208.04H477.28C478.944 208.04 480.352 207.464 481.504 206.312C482.72 205.096 483.36 203.656 483.424 201.992V148.712C483.36 147.048 482.72 145.64 481.504 144.488C480.352 143.336 478.944 142.76 477.28 142.76H476.032V141.8H505.216L505.12 142.76H503.968C502.304 142.76 500.864 143.336 499.648 144.488C498.432 145.64 497.824 147.048 497.824 148.712V173.48H528.928V148.712C528.864 147.048 528.224 145.64 527.008 144.488C525.856 143.336 524.448 142.76 522.784 142.76H521.536V141.8H550.72V142.76H549.472C547.808 142.76 546.368 143.368 545.152 144.584C543.936 145.736 543.328 147.144 543.328 148.808V201.992C543.328 203.656 543.936 205.096 545.152 206.312C546.368 207.464 547.808 208.04 549.472 208.04H550.72V209H521.536V208.04H522.784ZM623.848 208.04H624.712V209H594.088V208.04H594.952C596.36 208.04 597.384 207.624 598.024 206.792C598.728 205.896 599.08 205.064 599.08 204.296C599.08 203.528 598.92 202.76 598.6 201.992L593.896 190.184H571.432L566.44 201.992C566.12 202.824 565.96 203.624 565.96 204.392C565.96 205.096 566.28 205.896 566.92 206.792C567.624 207.624 568.712 208.04 570.184 208.04H570.952V209H550.408V208.04H551.272C552.744 208.04 554.216 207.592 555.688 206.696C557.16 205.8 558.376 204.456 559.336 202.664L581.512 152.456C584.52 146.12 586.12 141.928 586.312 139.88H587.176L615.688 202.472C616.648 204.328 617.864 205.736 619.336 206.696C620.808 207.592 622.312 208.04 623.848 208.04ZM573.064 186.152H592.264L582.952 162.536L573.064 186.152ZM660.865 140.456C672.705 140.456 682.113 143.592 689.089 149.864C696.065 156.136 699.553 164.648 699.553 175.4C699.553 186.152 696.065 194.664 689.089 200.936C682.113 207.208 672.705 210.344 660.865 210.344C649.025 210.344 639.617 207.208 632.641 200.936C625.665 194.664 622.177 186.152 622.177 175.4C622.177 168.296 623.745 162.12 626.881 156.872C630.081 151.56 634.593 147.496 640.417 144.68C646.241 141.864 653.057 140.456 660.865 140.456ZM644.065 198.056C648.225 203.56 653.825 206.312 660.865 206.312C667.905 206.312 673.473 203.56 677.569 198.056C681.729 192.488 683.809 184.936 683.809 175.4C683.809 169.128 682.881 163.656 681.025 158.984C679.169 154.312 676.513 150.728 673.057 148.232C669.601 145.736 665.537 144.488 660.865 144.488C653.825 144.488 648.225 147.272 644.065 152.84C639.969 158.344 637.921 165.864 637.921 175.4C637.921 184.936 639.969 192.488 644.065 198.056ZM707.8 200.072C707.8 195.464 708.792 191.528 710.776 188.264H711.64C711.576 188.776 711.544 189.288 711.544 189.8C711.544 194.216 713.112 198.088 716.248 201.416C719.448 204.68 723.8 206.312 729.304 206.312C733.592 206.312 736.92 205.288 739.288 203.24C741.72 201.192 742.936 198.6 742.936 195.464C742.936 191.688 740.376 188.392 735.256 185.576L718.552 174.536C715.224 172.616 712.824 170.312 711.352 167.624C709.944 164.872 709.24 162.088 709.24 159.272C709.24 153.256 711.128 148.616 714.904 145.352C718.744 142.088 723.64 140.456 729.592 140.456C733.112 140.456 737.464 140.776 742.648 141.416H748.696L747.448 155.528H746.488C746.488 152.2 745.24 149.544 742.744 147.56C740.312 145.512 737.048 144.488 732.952 144.488C727.96 144.488 724.344 146.024 722.104 149.096C720.952 150.568 720.376 152.232 720.376 154.088C720.376 157.16 722.616 160.008 727.096 162.632L745.432 174.536C751.192 177.864 754.072 182.76 754.072 189.224C754.072 196.072 751.736 201.32 747.064 204.968C742.456 208.552 736.312 210.344 728.632 210.344C724.28 210.344 720.248 209.832 716.536 208.808C712.888 207.72 710.2 206.28 708.472 204.488C708.024 203.272 707.8 201.8 707.8 200.072ZM885.028 146.024H880.9C880.772 146.024 880.676 146.024 880.612 146.024V201.992C880.676 204.36 881.7 206.12 883.684 207.272C884.644 207.784 885.668 208.04 886.756 208.04H888.004V209H858.82V208.04H860.068C862.372 208.04 864.132 207.048 865.348 205.064C865.86 204.168 866.148 203.176 866.212 202.088V148.808C866.148 147.144 865.508 145.736 864.292 144.584C863.14 143.368 861.732 142.76 860.068 142.76H858.82V141.8H891.748C897.956 141.8 903.204 143.144 907.492 145.832C909.668 147.176 911.396 149.064 912.676 151.496C913.956 153.864 914.596 156.584 914.596 159.656C914.596 162.664 914.052 165.448 912.964 168.008C911.94 170.568 910.18 172.808 907.684 174.728C905.252 176.648 902.308 177.8 898.852 178.184C902.564 179.4 905.828 182.216 908.644 186.632C915.556 197.704 920.676 204.296 924.004 206.408C925.668 207.432 927.748 207.976 930.244 208.04V209H920.836C915.396 209 910.852 208.264 907.204 206.792C903.556 205.256 900.58 202.664 898.276 199.016C897.124 197.16 895.652 194.376 893.86 190.664C892.068 186.888 890.884 184.2 890.308 182.6C888.58 178.76 886.404 176.616 883.78 176.168V175.208H886.756C889.636 175.208 892.164 174.344 894.34 172.616C896.58 170.888 898.084 168.072 898.852 164.168C899.108 162.824 899.236 161.768 899.236 161C899.236 155.752 898.18 151.976 896.068 149.672C893.956 147.304 891.236 146.088 887.908 146.024C887.268 146.024 886.308 146.024 885.028 146.024ZM961.827 145.736V202.088C961.891 203.752 962.499 205.16 963.651 206.312C964.867 207.464 966.307 208.04 967.971 208.04H969.123L969.219 209H940.035V208.04H941.283C942.883 208.04 944.259 207.464 945.411 206.312C946.627 205.16 947.299 203.784 947.427 202.184V145.736H934.467C931.523 145.8 929.187 146.728 927.459 148.52C925.731 150.312 924.867 152.648 924.867 155.528V156.68H923.907V139.976C924.803 140.36 926.403 140.744 928.707 141.128C931.075 141.512 933.251 141.704 935.234 141.704H973.923C977.059 141.64 979.619 141.384 981.603 140.936C983.587 140.488 984.803 140.168 985.251 139.976V156.68H984.291V155.528C984.291 152.648 983.427 150.312 981.699 148.52C979.971 146.728 977.635 145.8 974.691 145.736H961.827Z" fill="black"/>
<path d="M358.8 227.4C361.573 227.4 363.92 226.44 365.84 224.52C367.867 222.493 368.933 220.093 369.04 217.32V128.52C368.933 124.68 367.173 121.8 363.76 119.88C362.267 119.027 360.613 118.6 358.8 118.6H356.72V117H405.36L405.2 118.6H403.28C400.507 118.6 398.107 119.56 396.08 121.48C394.053 123.4 393.04 125.747 393.04 128.52V217.32C393.04 220.093 394.053 222.493 396.08 224.52C398.107 226.44 400.507 227.4 403.28 227.4H405.2L405.36 229H356.72V227.4H358.8ZM517.68 256.2C509.893 260.253 502.8 262.28 496.4 262.28C490 262.28 484.24 261.373 479.12 259.56C466.427 254.973 453.467 244.467 440.24 228.04L398.16 176.2L436.08 125.96C436.933 124.893 437.36 123.933 437.36 123.08C437.36 122.227 437.2 121.48 436.88 120.84C436.027 119.24 434.533 118.44 432.4 118.44H430.8V117H467.44V118.44H466.8C459.653 118.44 453.84 121 449.36 126.12L418.16 163.24L461.68 217.32C471.387 230.12 480.507 239.4 489.04 245.16C497.573 250.92 507.067 254.067 517.52 254.6L517.68 256.2Z" fill="black"/>
<path d="M918.56 258.28C906.933 264.147 895.147 265.107 883.2 261.16C870.507 257.107 859.573 248.467 850.4 235.24C845.493 228.2 841.28 220.04 837.76 210.76L832.64 197.16H794.88L786.4 217.32C785.867 218.707 785.6 219.827 785.6 220.68C785.6 221.533 785.76 222.493 786.08 223.56C786.507 224.52 787.307 225.427 788.48 226.28C789.76 227.027 791.147 227.4 792.64 227.4H793.92V229H759.68V227.4H761.12C763.573 227.4 765.973 226.707 768.32 225.32C770.773 223.827 772.8 221.64 774.4 218.76L810.08 137.32C805.92 127.933 801.493 121.48 796.8 117.96C792.853 114.973 789.067 113.48 785.44 113.48C781.92 113.48 778.613 114.013 775.52 115.08L775.2 113.48C782.88 109.533 790.24 107.56 797.28 107.56C806.027 107.56 813.867 110.973 820.8 117.8C827.627 124.52 833.653 134.227 838.88 146.92L862.08 204.2C870.827 225.853 879.787 240.733 888.96 248.84C892.693 252.147 896.533 254.44 900.48 255.72C904.427 257 907.733 257.64 910.4 257.64C913.173 257.64 915.84 257.32 918.4 256.68L918.56 258.28ZM797.6 190.28H830.24L819.04 160.68C818.507 159.187 817.76 157.16 816.8 154.6C815.84 151.933 815.2 150.067 814.88 149L797.6 190.28Z" fill="black"/>
<path d="M59.5 45.5L145 45.5L328 315.5L255 315.5L59.5 45.5Z" fill="black"/>
<path d="M1277.5 45.6404L1192 45.6403L1009 315.64L1082 315.64L1277.5 45.6404Z" fill="black"/>
</svg>
